<svg width="48" height="48" viewBox="0 0 48 48" fill="none" xmlns="http://www.w3.org/2000/svg">
<rect width="48" height="48" rx="4" fill="white"/>
<g clip-path="url(#clip0_135_889)">
<path d="M15 17.0909C15 16.4848 15.2027 15.9848 15.6081 15.5909C16.0135 15.197 16.5405 15 17.1892 15C17.8263 15 18.3417 15.1939 18.7355 15.5818C19.1409 15.9818 19.3436 16.503 19.3436 17.1455C19.3436 17.7273 19.1467 18.2121 18.7529 18.6C18.3475 19 17.8147 19.2 17.1544 19.2H17.1371C16.5 19.2 15.9846 19 15.5907 18.6C15.1969 18.2 15 17.697 15 17.0909ZM15.2259 33V20.8545H19.083V33H15.2259ZM21.2201 33H25.0772V26.2182C25.0772 25.7939 25.1236 25.4666 25.2162 25.2363C25.3784 24.8242 25.6245 24.4757 25.9546 24.1909C26.2847 23.906 26.6988 23.7636 27.1969 23.7636C28.4942 23.7636 29.1429 24.6788 29.1429 26.5091V33H33V26.0363C33 24.2424 32.5946 22.8818 31.7838 21.9545C30.973 21.0273 29.9016 20.5636 28.5695 20.5636C27.0753 20.5636 25.9112 21.2364 25.0772 22.5818V22.6182H25.0598L25.0772 22.5818V20.8545H21.2201C21.2432 21.2424 21.2548 22.4485 21.2548 24.4727C21.2548 26.4969 21.2432 29.3394 21.2201 33Z" fill="#A53DFF"/>
</g>
<defs>
<clipPath id="clip0_135_889">
<rect width="18" height="18" fill="white" transform="translate(15 15)"/>
</clipPath>
</defs>
</svg>
